<svg xmlns="http://www.w3.org/2000/svg" width="256" height="256" viewBox="0 0 100 100"><rect width="100" height="100" rx="20" fill="#2563eb"></rect><path d="M16.12 59.25L16.12 59.25Q14.53 59.25 13.91 58.71Q13.30 58.17 13.30 56.76L13.30 56.76L13.30 40.77Q13.66 40.71 14.35 40.61Q15.04 40.50 15.73 40.50L15.73 40.50Q17.23 40.50 17.89 41.01Q18.55 41.52 18.55 42.99L18.55 42.99L18.55 58.98Q18.22 59.07 17.53 59.16Q16.84 59.25 16.12 59.25ZM36.40 49.62L36.40 58.98Q36.07 59.07 35.45 59.16Q34.84 59.25 34.12 59.25L34.12 59.25Q32.62 59.25 31.96 58.76Q31.30 58.26 31.30 56.85L31.30 56.85L31.30 49.77Q31.30 48.84 30.74 48.41Q30.19 47.97 29.29 47.97L29.29 47.97Q28.69 47.97 28.16 48.12Q27.64 48.27 27.16 48.51L27.16 48.51L27.16 58.98Q26.83 59.07 26.21 59.16Q25.60 59.25 24.88 59.25L24.88 59.25Q23.38 59.25 22.72 58.76Q22.06 58.26 22.06 56.85L22.06 56.85L22.06 47.82Q22.06 47.01 22.40 46.50Q22.75 45.99 23.35 45.57L23.35 45.57Q24.37 44.85 25.91 44.42Q27.46 43.98 29.35 43.98L29.35 43.98Q32.74 43.98 34.57 45.47Q36.40 46.95 36.40 49.62L36.40 49.62ZM51.13 44.13L51.13 44.13Q52.18 44.13 52.90 44.58Q53.62 45.03 53.62 46.14L53.62 46.14Q53.62 46.62 53.41 47.54Q53.20 48.45 52.84 49.61Q52.48 50.76 52.03 52.05Q51.58 53.34 51.10 54.56Q50.62 55.77 50.14 56.84Q49.66 57.90 49.30 58.56L49.30 58.56Q48.88 58.89 48.07 59.10Q47.26 59.31 46.24 59.31L46.24 59.31Q45.07 59.31 44.21 59.01Q43.36 58.71 43.03 58.05L43.03 58.05Q42.76 57.54 42.38 56.64Q42.01 55.74 41.59 54.60Q41.17 53.46 40.72 52.20Q40.27 50.94 39.86 49.68Q39.46 48.42 39.13 47.25Q38.80 46.08 38.59 45.18L38.59 45.18Q39.01 44.76 39.71 44.45Q40.42 44.13 41.26 44.13L41.26 44.13Q42.31 44.13 42.98 44.57Q43.66 45.00 43.99 46.20L43.99 46.20L45.16 50.79Q45.49 52.14 45.79 53.24Q46.09 54.33 46.24 54.93L46.24 54.93L46.39 54.93Q46.96 52.71 47.59 50.01Q48.22 47.31 48.73 44.70L48.73 44.70Q49.24 44.43 49.88 44.28Q50.53 44.13 51.13 44.13ZM67.75 52.59L60.28 53.73Q60.70 54.81 61.69 55.25Q62.68 55.68 63.91 55.68L63.91 55.68Q65.17 55.68 66.31 55.37Q67.45 55.05 68.14 54.63L68.14 54.63Q68.62 54.93 68.95 55.47Q69.28 56.01 69.28 56.61L69.28 56.61Q69.28 57.36 68.86 57.90Q68.44 58.44 67.67 58.80Q66.91 59.16 65.86 59.33Q64.81 59.49 63.55 59.49L63.55 59.49Q61.78 59.49 60.26 59.00Q58.75 58.50 57.64 57.51Q56.53 56.52 55.90 55.02Q55.27 53.52 55.27 51.51L55.27 51.51Q55.27 49.53 55.91 48.11Q56.56 46.68 57.62 45.77Q58.69 44.85 60.04 44.42Q61.39 43.98 62.80 43.98L62.80 43.98Q64.39 43.98 65.69 44.46Q67.00 44.94 67.94 45.78Q68.89 46.62 69.40 47.79Q69.91 48.96 69.91 50.34L69.91 50.34Q69.91 51.36 69.34 51.90Q68.77 52.44 67.75 52.59L67.75 52.59ZM62.83 47.70L62.83 47.70Q61.69 47.70 60.92 48.39Q60.16 49.08 60.01 50.34L60.01 50.34L65.11 49.50Q65.08 49.20 64.93 48.89Q64.78 48.57 64.51 48.30Q64.24 48.03 63.82 47.87Q63.40 47.70 62.83 47.70ZM86.71 49.62L86.71 58.98Q86.38 59.07 85.76 59.16Q85.15 59.25 84.43 59.25L84.43 59.25Q82.93 59.25 82.27 58.76Q81.61 58.26 81.61 56.85L81.61 56.85L81.61 49.77Q81.61 48.84 81.05 48.41Q80.50 47.97 79.59 47.97L79.59 47.97Q79.00 47.97 78.47 48.12Q77.95 48.27 77.47 48.51L77.47 48.51L77.47 58.98Q77.14 59.07 76.52 59.16Q75.91 59.25 75.19 59.25L75.19 59.25Q73.69 59.25 73.03 58.76Q72.37 58.26 72.37 56.85L72.37 56.85L72.37 47.82Q72.37 47.01 72.71 46.50Q73.06 45.99 73.66 45.57L73.66 45.57Q74.68 44.85 76.22 44.42Q77.77 43.98 79.66 43.98L79.66 43.98Q83.05 43.98 84.88 45.47Q86.71 46.95 86.71 49.62L86.71 49.62Z" fill="#fff"></path></svg>